<mxfile host="app.diagrams.net" agent="Mozilla/5.0 (Windows NT 10.0; Win64; x64) AppleWebKit/537.36 (KHTML, like Gecko) Chrome/128.0.0.0 Safari/537.36" version="24.7.15">
  <diagram name="Page-1" id="2YBvvXClWsGukQMizWep">
    <mxGraphModel dx="1075" dy="464" grid="1" gridSize="10" guides="1" tooltips="1" connect="1" arrows="1" fold="1" page="1" pageScale="1" pageWidth="850" pageHeight="1100" math="0" shadow="0">
      <root>
        <mxCell id="0" />
        <mxCell id="1" parent="0" />
        <mxCell id="WS6JbOEzyXQcnANfF4VP-18" value="" style="endArrow=none;dashed=1;html=1;rounded=0;exitX=0;exitY=0.444;exitDx=0;exitDy=0;exitPerimeter=0;" edge="1" parent="1" source="WS6JbOEzyXQcnANfF4VP-14">
          <mxGeometry width="50" height="50" relative="1" as="geometry">
            <mxPoint x="178" y="290" as="sourcePoint" />
            <mxPoint x="630" y="290" as="targetPoint" />
          </mxGeometry>
        </mxCell>
        <mxCell id="WS6JbOEzyXQcnANfF4VP-14" value="Alternative" style="shape=umlFrame;whiteSpace=wrap;html=1;pointerEvents=0;" vertex="1" parent="1">
          <mxGeometry x="120" y="210" width="510" height="180" as="geometry" />
        </mxCell>
        <mxCell id="WS6JbOEzyXQcnANfF4VP-1" value="" style="shape=umlLifeline;perimeter=lifelinePerimeter;whiteSpace=wrap;html=1;container=1;dropTarget=0;collapsible=0;recursiveResize=0;outlineConnect=0;portConstraint=eastwest;newEdgeStyle={&quot;curved&quot;:0,&quot;rounded&quot;:0};participant=umlActor;size=40;" vertex="1" parent="1">
          <mxGeometry x="70" y="40" width="20" height="400" as="geometry" />
        </mxCell>
        <mxCell id="WS6JbOEzyXQcnANfF4VP-2" value="&lt;span style=&quot;font-weight: normal;&quot;&gt;User&lt;/span&gt;" style="text;align=center;fontStyle=1;verticalAlign=middle;spacingLeft=3;spacingRight=3;strokeColor=none;rotatable=0;points=[[0,0.5],[1,0.5]];portConstraint=eastwest;html=1;" vertex="1" parent="1">
          <mxGeometry x="40" y="14" width="80" height="26" as="geometry" />
        </mxCell>
        <mxCell id="WS6JbOEzyXQcnANfF4VP-3" value="View" style="shape=umlLifeline;perimeter=lifelinePerimeter;whiteSpace=wrap;html=1;container=1;dropTarget=0;collapsible=0;recursiveResize=0;outlineConnect=0;portConstraint=eastwest;newEdgeStyle={&quot;curved&quot;:0,&quot;rounded&quot;:0};" vertex="1" parent="1">
          <mxGeometry x="200" y="40" width="100" height="400" as="geometry" />
        </mxCell>
        <mxCell id="WS6JbOEzyXQcnANfF4VP-10" value="" style="html=1;points=[[0,0,0,0,5],[0,1,0,0,-5],[1,0,0,0,5],[1,1,0,0,-5]];perimeter=orthogonalPerimeter;outlineConnect=0;targetShapes=umlLifeline;portConstraint=eastwest;newEdgeStyle={&quot;curved&quot;:0,&quot;rounded&quot;:0};" vertex="1" parent="WS6JbOEzyXQcnANfF4VP-3">
          <mxGeometry x="45" y="120" width="10" height="230" as="geometry" />
        </mxCell>
        <mxCell id="WS6JbOEzyXQcnANfF4VP-4" value=":Controller" style="shape=umlLifeline;perimeter=lifelinePerimeter;whiteSpace=wrap;html=1;container=1;dropTarget=0;collapsible=0;recursiveResize=0;outlineConnect=0;portConstraint=eastwest;newEdgeStyle={&quot;curved&quot;:0,&quot;rounded&quot;:0};" vertex="1" parent="1">
          <mxGeometry x="375" y="40" width="100" height="400" as="geometry" />
        </mxCell>
        <mxCell id="WS6JbOEzyXQcnANfF4VP-11" value="" style="html=1;points=[[0,0,0,0,5],[0,1,0,0,-5],[1,0,0,0,5],[1,1,0,0,-5]];perimeter=orthogonalPerimeter;outlineConnect=0;targetShapes=umlLifeline;portConstraint=eastwest;newEdgeStyle={&quot;curved&quot;:0,&quot;rounded&quot;:0};" vertex="1" parent="WS6JbOEzyXQcnANfF4VP-4">
          <mxGeometry x="45" y="140" width="10" height="210" as="geometry" />
        </mxCell>
        <mxCell id="WS6JbOEzyXQcnANfF4VP-5" value="Database" style="shape=umlLifeline;perimeter=lifelinePerimeter;whiteSpace=wrap;html=1;container=1;dropTarget=0;collapsible=0;recursiveResize=0;outlineConnect=0;portConstraint=eastwest;newEdgeStyle={&quot;curved&quot;:0,&quot;rounded&quot;:0};" vertex="1" parent="1">
          <mxGeometry x="550" y="40" width="100" height="400" as="geometry" />
        </mxCell>
        <mxCell id="WS6JbOEzyXQcnANfF4VP-13" value="" style="html=1;points=[[0,0,0,0,5],[0,1,0,0,-5],[1,0,0,0,5],[1,1,0,0,-5]];perimeter=orthogonalPerimeter;outlineConnect=0;targetShapes=umlLifeline;portConstraint=eastwest;newEdgeStyle={&quot;curved&quot;:0,&quot;rounded&quot;:0};" vertex="1" parent="WS6JbOEzyXQcnANfF4VP-5">
          <mxGeometry x="45" y="290" width="10" height="60" as="geometry" />
        </mxCell>
        <mxCell id="WS6JbOEzyXQcnANfF4VP-8" value="Create Request" style="html=1;verticalAlign=bottom;endArrow=block;curved=0;rounded=0;" edge="1" parent="1" source="WS6JbOEzyXQcnANfF4VP-1">
          <mxGeometry width="80" relative="1" as="geometry">
            <mxPoint x="85" y="160" as="sourcePoint" />
            <mxPoint x="245" y="160" as="targetPoint" />
          </mxGeometry>
        </mxCell>
        <mxCell id="WS6JbOEzyXQcnANfF4VP-9" value="Validation" style="html=1;verticalAlign=bottom;endArrow=block;curved=0;rounded=0;" edge="1" parent="1" source="WS6JbOEzyXQcnANfF4VP-10">
          <mxGeometry width="80" relative="1" as="geometry">
            <mxPoint x="260" y="180" as="sourcePoint" />
            <mxPoint x="420" y="180" as="targetPoint" />
          </mxGeometry>
        </mxCell>
        <mxCell id="WS6JbOEzyXQcnANfF4VP-12" value="Insert data" style="html=1;verticalAlign=bottom;endArrow=block;curved=0;rounded=0;" edge="1" parent="1">
          <mxGeometry width="80" relative="1" as="geometry">
            <mxPoint x="430" y="330" as="sourcePoint" />
            <mxPoint x="595" y="330" as="targetPoint" />
          </mxGeometry>
        </mxCell>
        <mxCell id="WS6JbOEzyXQcnANfF4VP-15" value="Invalid" style="html=1;verticalAlign=bottom;endArrow=open;dashed=1;endSize=8;curved=0;rounded=0;" edge="1" parent="1">
          <mxGeometry relative="1" as="geometry">
            <mxPoint x="420" y="240" as="sourcePoint" />
            <mxPoint x="255" y="240" as="targetPoint" />
          </mxGeometry>
        </mxCell>
        <mxCell id="WS6JbOEzyXQcnANfF4VP-16" value="Error Message" style="html=1;verticalAlign=bottom;endArrow=open;dashed=1;endSize=8;curved=0;rounded=0;" edge="1" parent="1">
          <mxGeometry relative="1" as="geometry">
            <mxPoint x="419" y="266" as="sourcePoint" />
            <mxPoint x="254" y="266" as="targetPoint" />
          </mxGeometry>
        </mxCell>
        <mxCell id="WS6JbOEzyXQcnANfF4VP-19" value="Valid" style="html=1;verticalAlign=bottom;endArrow=open;dashed=1;endSize=8;curved=0;rounded=0;" edge="1" parent="1">
          <mxGeometry relative="1" as="geometry">
            <mxPoint x="420" y="313" as="sourcePoint" />
            <mxPoint x="255" y="313" as="targetPoint" />
          </mxGeometry>
        </mxCell>
        <mxCell id="WS6JbOEzyXQcnANfF4VP-21" value="Success Message" style="html=1;verticalAlign=bottom;endArrow=open;dashed=1;endSize=8;curved=0;rounded=0;" edge="1" parent="1">
          <mxGeometry relative="1" as="geometry">
            <mxPoint x="420" y="350" as="sourcePoint" />
            <mxPoint x="255" y="350" as="targetPoint" />
          </mxGeometry>
        </mxCell>
      </root>
    </mxGraphModel>
  </diagram>
</mxfile>
